<?xml version="1.0" encoding="UTF-8" standalone="no"?>
<!DOCTYPE svg PUBLIC "-//W3C//DTD SVG 1.1//EN"
 "http://www.w3.org/Graphics/SVG/1.1/DTD/svg11.dtd">
<!-- Generated by graphviz version 5.0.0 (20220707.1540)
 -->
<!-- Title: dependencies Pages: 1 -->
<svg width="539pt" height="185pt"
 viewBox="0.00 0.00 539.00 184.80" xmlns="http://www.w3.org/2000/svg" xmlns:xlink="http://www.w3.org/1999/xlink">
<g id="graph0" class="graph" transform="scale(1 1) rotate(0) translate(4 180.8)">
<title>dependencies</title>
<polygon fill="white" stroke="transparent" points="-4,4 -4,-180.8 535,-180.8 535,4 -4,4"/>
<text text-anchor="middle" x="265.5" y="-8.2" font-family="sans-serif" font-size="14.00">dependencies</text>
<g id="clust1" class="cluster">
<title>cluster_AppModule</title>
<polygon fill="none" stroke="black" stroke-dasharray="1,5" points="8,-32.8 8,-160.8 251,-160.8 251,-32.8 8,-32.8"/>
</g>
<g id="clust3" class="cluster">
<title>cluster_AppModule_imports</title>
<polygon fill="none" stroke="black" points="16,-40.8 16,-92.8 243,-92.8 243,-40.8 16,-40.8"/>
</g>
<g id="clust7" class="cluster">
<title>cluster_AuthModule</title>
<polygon fill="none" stroke="black" stroke-dasharray="1,5" points="259,-100.8 259,-168.8 523,-168.8 523,-100.8 259,-100.8"/>
</g>
<g id="clust10" class="cluster">
<title>cluster_AuthModule_exports</title>
<polygon fill="none" stroke="black" points="409,-108.8 409,-160.8 515,-160.8 515,-108.8 409,-108.8"/>
</g>
<g id="clust12" class="cluster">
<title>cluster_AuthModule_providers</title>
<polygon fill="none" stroke="black" points="267,-108.8 267,-160.8 401,-160.8 401,-108.8 267,-108.8"/>
</g>
<!-- AuthModule -->
<g id="node1" class="node">
<title>AuthModule</title>
<polygon fill="#8dd3c7" stroke="black" points="234.55,-84.8 231.55,-88.8 210.55,-88.8 207.55,-84.8 147.45,-84.8 147.45,-48.8 234.55,-48.8 234.55,-84.8"/>
<text text-anchor="middle" x="191" y="-62.6" font-family="Times,serif" font-size="14.00">AuthModule</text>
</g>
<!-- AppModule -->
<g id="node3" class="node">
<title>AppModule</title>
<polygon fill="#8dd3c7" stroke="black" points="175.66,-152.8 172.66,-156.8 151.66,-156.8 148.66,-152.8 92.34,-152.8 92.34,-116.8 175.66,-116.8 175.66,-152.8"/>
<text text-anchor="middle" x="134" y="-130.6" font-family="Times,serif" font-size="14.00">AppModule</text>
</g>
<!-- AuthModule&#45;&gt;AppModule -->
<g id="edge1" class="edge">
<title>AuthModule&#45;&gt;AppModule</title>
<path fill="none" stroke="black" d="M161.53,-85.02C161.53,-85.02 161.53,-106.53 161.53,-106.53"/>
<polygon fill="black" stroke="black" points="158.03,-106.53 161.53,-116.53 165.03,-106.53 158.03,-106.53"/>
</g>
<!-- AuthService  -->
<g id="node4" class="node">
<title>AuthService </title>
<polygon fill="#fb8072" stroke="black" points="506.98,-152.8 417.02,-152.8 417.02,-116.8 506.98,-116.8 506.98,-152.8"/>
<text text-anchor="middle" x="462" y="-130.6" font-family="Times,serif" font-size="14.00">AuthService </text>
</g>
<!-- AuthModule&#45;&gt;AuthService  -->
<g id="edge3" class="edge">
<title>AuthModule&#45;&gt;AuthService </title>
<path fill="none" stroke="black" stroke-dasharray="5,2" d="M234.84,-66.8C311.54,-66.8 462,-66.8 462,-66.8 462,-66.8 462,-106.58 462,-106.58"/>
<polygon fill="black" stroke="black" points="458.5,-106.58 462,-116.58 465.5,-106.58 458.5,-106.58"/>
</g>
<!-- BinanceModule -->
<g id="node2" class="node">
<title>BinanceModule</title>
<polygon fill="#8dd3c7" stroke="black" points="129.92,-84.8 126.92,-88.8 105.92,-88.8 102.92,-84.8 24.08,-84.8 24.08,-48.8 129.92,-48.8 129.92,-84.8"/>
<text text-anchor="middle" x="77" y="-62.6" font-family="Times,serif" font-size="14.00">BinanceModule</text>
</g>
<!-- BinanceModule&#45;&gt;AppModule -->
<g id="edge2" class="edge">
<title>BinanceModule&#45;&gt;AppModule</title>
<path fill="none" stroke="black" d="M110.94,-85.02C110.94,-85.02 110.94,-106.53 110.94,-106.53"/>
<polygon fill="black" stroke="black" points="107.44,-106.53 110.94,-116.53 114.44,-106.53 107.44,-106.53"/>
</g>
<!-- AuthService -->
<g id="node5" class="node">
<title>AuthService</title>
<ellipse fill="#fdb462" stroke="black" cx="334" cy="-134.8" rx="59.11" ry="18"/>
<text text-anchor="middle" x="334" y="-130.6" font-family="Times,serif" font-size="14.00">AuthService</text>
</g>
<!-- AuthService&#45;&gt;AuthModule -->
<g id="edge4" class="edge">
<title>AuthService&#45;&gt;AuthModule</title>
<path fill="none" stroke="black" d="M274.55,-134.8C240.83,-134.8 205.3,-134.8 205.3,-134.8 205.3,-134.8 205.3,-95.02 205.3,-95.02"/>
<polygon fill="black" stroke="black" points="208.8,-95.02 205.3,-85.02 201.8,-95.02 208.8,-95.02"/>
</g>
</g>
</svg>
