<?xml version="1.0" encoding="UTF-8" standalone="no"?>
<!DOCTYPE svg PUBLIC "-//W3C//DTD SVG 1.1//EN"
 "http://www.w3.org/Graphics/SVG/1.1/DTD/svg11.dtd">
<!-- Generated by graphviz version 5.0.0 (20220707.1540)
 -->
<!-- Title: dependencies Pages: 1 -->
<svg width="267pt" height="174pt"
 viewBox="0.00 0.00 267.00 173.80" xmlns="http://www.w3.org/2000/svg" xmlns:xlink="http://www.w3.org/1999/xlink">
<g id="graph0" class="graph" transform="scale(1 1) rotate(0) translate(4 169.8)">
<title>dependencies</title>
<polygon fill="white" stroke="transparent" points="-4,4 -4,-169.8 263,-169.8 263,4 -4,4"/>
<text text-anchor="middle" x="129.5" y="-8.2" font-family="sans-serif" font-size="14.00">dependencies</text>
<g id="clust1" class="cluster">
<title>cluster_AppModule</title>
<polygon fill="none" stroke="black" stroke-dasharray="1,5" points="8,-32.8 8,-157.8 251,-157.8 251,-32.8 8,-32.8"/>
</g>
<g id="clust3" class="cluster">
<title>cluster_AppModule_imports</title>
<polygon fill="none" stroke="black" points="16,-40.8 16,-92.8 243,-92.8 243,-40.8 16,-40.8"/>
</g>
<!-- AuthModule -->
<g id="node1" class="node">
<title>AuthModule</title>
<polygon fill="#8dd3c7" stroke="black" points="234.55,-84.8 231.55,-88.8 210.55,-88.8 207.55,-84.8 147.45,-84.8 147.45,-48.8 234.55,-48.8 234.55,-84.8"/>
<text text-anchor="middle" x="191" y="-62.6" font-family="Times,serif" font-size="14.00">AuthModule</text>
</g>
<!-- AppModule -->
<g id="node3" class="node">
<title>AppModule</title>
<polygon fill="#8dd3c7" stroke="black" points="175.66,-149.8 172.66,-153.8 151.66,-153.8 148.66,-149.8 92.34,-149.8 92.34,-113.8 175.66,-113.8 175.66,-149.8"/>
<text text-anchor="middle" x="134" y="-127.6" font-family="Times,serif" font-size="14.00">AppModule</text>
</g>
<!-- AuthModule&#45;&gt;AppModule -->
<g id="edge1" class="edge">
<title>AuthModule&#45;&gt;AppModule</title>
<path fill="none" stroke="black" d="M161.53,-84.91C161.53,-84.91 161.53,-103.79 161.53,-103.79"/>
<polygon fill="black" stroke="black" points="158.03,-103.79 161.53,-113.79 165.03,-103.79 158.03,-103.79"/>
</g>
<!-- BinanceModule -->
<g id="node2" class="node">
<title>BinanceModule</title>
<polygon fill="#8dd3c7" stroke="black" points="129.92,-84.8 126.92,-88.8 105.92,-88.8 102.92,-84.8 24.08,-84.8 24.08,-48.8 129.92,-48.8 129.92,-84.8"/>
<text text-anchor="middle" x="77" y="-62.6" font-family="Times,serif" font-size="14.00">BinanceModule</text>
</g>
<!-- BinanceModule&#45;&gt;AppModule -->
<g id="edge2" class="edge">
<title>BinanceModule&#45;&gt;AppModule</title>
<path fill="none" stroke="black" d="M110.94,-84.91C110.94,-84.91 110.94,-103.79 110.94,-103.79"/>
<polygon fill="black" stroke="black" points="107.44,-103.79 110.94,-113.79 114.44,-103.79 107.44,-103.79"/>
</g>
</g>
</svg>
