<?xml version="1.0" encoding="UTF-8" standalone="no"?>
<!DOCTYPE svg PUBLIC "-//W3C//DTD SVG 1.1//EN"
 "http://www.w3.org/Graphics/SVG/1.1/DTD/svg11.dtd">
<!-- Generated by graphviz version 5.0.0 (20220707.1540)
 -->
<!-- Title: dependencies Pages: 1 -->
<svg width="200pt" height="174pt"
 viewBox="0.00 0.00 200.00 173.80" xmlns="http://www.w3.org/2000/svg" xmlns:xlink="http://www.w3.org/1999/xlink">
<g id="graph0" class="graph" transform="scale(1 1) rotate(0) translate(4 169.8)">
<title>dependencies</title>
<polygon fill="white" stroke="transparent" points="-4,4 -4,-169.8 196,-169.8 196,4 -4,4"/>
<text text-anchor="middle" x="96" y="-8.2" font-family="sans-serif" font-size="14.00">dependencies</text>
<g id="clust1" class="cluster">
<title>cluster_BinanceModule</title>
<polygon fill="none" stroke="black" stroke-dasharray="1,5" points="8,-32.8 8,-157.8 184,-157.8 184,-32.8 8,-32.8"/>
</g>
<g id="clust6" class="cluster">
<title>cluster_BinanceModule_providers</title>
<polygon fill="none" stroke="black" points="16,-40.8 16,-92.8 176,-92.8 176,-40.8 16,-40.8"/>
</g>
<!-- BinanceService -->
<g id="node1" class="node">
<title>BinanceService</title>
<ellipse fill="#fdb462" stroke="black" cx="96" cy="-66.8" rx="71.77" ry="18"/>
<text text-anchor="middle" x="96" y="-62.6" font-family="Times,serif" font-size="14.00">BinanceService</text>
</g>
<!-- BinanceModule -->
<g id="node2" class="node">
<title>BinanceModule</title>
<polygon fill="#8dd3c7" stroke="black" points="148.92,-149.8 145.92,-153.8 124.92,-153.8 121.92,-149.8 43.08,-149.8 43.08,-113.8 148.92,-113.8 148.92,-149.8"/>
<text text-anchor="middle" x="96" y="-127.6" font-family="Times,serif" font-size="14.00">BinanceModule</text>
</g>
<!-- BinanceService&#45;&gt;BinanceModule -->
<g id="edge1" class="edge">
<title>BinanceService&#45;&gt;BinanceModule</title>
<path fill="none" stroke="black" d="M96,-84.91C96,-84.91 96,-103.79 96,-103.79"/>
<polygon fill="black" stroke="black" points="92.5,-103.79 96,-113.79 99.5,-103.79 92.5,-103.79"/>
</g>
</g>
</svg>
