<?xml version="1.0" encoding="UTF-8" standalone="no"?>
<!DOCTYPE svg PUBLIC "-//W3C//DTD SVG 1.1//EN"
 "http://www.w3.org/Graphics/SVG/1.1/DTD/svg11.dtd">
<!-- Generated by graphviz version 5.0.0 (20220707.1540)
 -->
<!-- Title: dependencies Pages: 1 -->
<svg width="200pt" height="250pt"
 viewBox="0.00 0.00 200.00 249.80" xmlns="http://www.w3.org/2000/svg" xmlns:xlink="http://www.w3.org/1999/xlink">
<g id="graph0" class="graph" transform="scale(1 1) rotate(0) translate(4 245.8)">
<title>dependencies</title>
<polygon fill="white" stroke="transparent" points="-4,4 -4,-245.8 196,-245.8 196,4 -4,4"/>
<text text-anchor="middle" x="96" y="-8.2" font-family="sans-serif" font-size="14.00">dependencies</text>
<g id="clust1" class="cluster">
<title>cluster_AppModule</title>
<polygon fill="none" stroke="black" stroke-dasharray="1,5" points="27,-108.8 27,-233.8 165,-233.8 165,-108.8 27,-108.8"/>
</g>
<g id="clust3" class="cluster">
<title>cluster_AppModule_imports</title>
<polygon fill="none" stroke="black" points="35,-116.8 35,-168.8 157,-168.8 157,-116.8 35,-116.8"/>
</g>
<g id="clust7" class="cluster">
<title>cluster_BinanceModule</title>
<polygon fill="none" stroke="black" stroke-dasharray="1,5" points="8,-32.8 8,-100.8 184,-100.8 184,-32.8 8,-32.8"/>
</g>
<g id="clust12" class="cluster">
<title>cluster_BinanceModule_providers</title>
<polygon fill="none" stroke="black" points="16,-40.8 16,-92.8 176,-92.8 176,-40.8 16,-40.8"/>
</g>
<!-- BinanceModule -->
<g id="node1" class="node">
<title>BinanceModule</title>
<polygon fill="#8dd3c7" stroke="black" points="148.92,-160.8 145.92,-164.8 124.92,-164.8 121.92,-160.8 43.08,-160.8 43.08,-124.8 148.92,-124.8 148.92,-160.8"/>
<text text-anchor="middle" x="96" y="-138.6" font-family="Times,serif" font-size="14.00">BinanceModule</text>
</g>
<!-- AppModule -->
<g id="node2" class="node">
<title>AppModule</title>
<polygon fill="#8dd3c7" stroke="black" points="137.66,-225.8 134.66,-229.8 113.66,-229.8 110.66,-225.8 54.34,-225.8 54.34,-189.8 137.66,-189.8 137.66,-225.8"/>
<text text-anchor="middle" x="96" y="-203.6" font-family="Times,serif" font-size="14.00">AppModule</text>
</g>
<!-- BinanceModule&#45;&gt;AppModule -->
<g id="edge1" class="edge">
<title>BinanceModule&#45;&gt;AppModule</title>
<path fill="none" stroke="black" d="M96,-160.91C96,-160.91 96,-179.79 96,-179.79"/>
<polygon fill="black" stroke="black" points="92.5,-179.79 96,-189.79 99.5,-179.79 92.5,-179.79"/>
</g>
<!-- BinanceService -->
<g id="node3" class="node">
<title>BinanceService</title>
<ellipse fill="#fdb462" stroke="black" cx="96" cy="-66.8" rx="71.77" ry="18"/>
<text text-anchor="middle" x="96" y="-62.6" font-family="Times,serif" font-size="14.00">BinanceService</text>
</g>
<!-- BinanceService&#45;&gt;BinanceModule -->
<g id="edge2" class="edge">
<title>BinanceService&#45;&gt;BinanceModule</title>
<path fill="none" stroke="black" d="M96,-84.81C96,-84.81 96,-114.65 96,-114.65"/>
<polygon fill="black" stroke="black" points="92.5,-114.65 96,-124.65 99.5,-114.65 92.5,-114.65"/>
</g>
</g>
</svg>
